<svg xmlns="http://www.w3.org/2000/svg" xmlns:xlink="http://www.w3.org/1999/xlink" viewBox="0 0 350 350"><defs><style>.a,.c{fill:none;}.b{clip-path:url(#a);}.c{stroke:#d1d3d4;stroke-miterlimit:10;stroke-width:3px;}</style><clipPath id="a"><rect class="a" x="-1.59" y="-0.43" width="349" height="349"/></clipPath></defs><g class="b"><line class="c" x1="-178.38" y1="176.37" x2="180.38" y2="523.85"/><line class="c" x1="-90.07" y1="88.06" x2="268.69" y2="435.54"/><line class="c" x1="-82.68" y1="80.66" x2="276.08" y2="428.15"/><line class="c" x1="-75.29" y1="73.27" x2="283.47" y2="420.75"/><line class="c" x1="-67.9" y1="65.88" x2="290.86" y2="413.36"/><line class="c" x1="-60.5" y1="58.49" x2="298.26" y2="405.97"/><line class="c" x1="-53.11" y1="51.1" x2="305.65" y2="398.58"/><line class="c" x1="-45.72" y1="43.7" x2="313.04" y2="391.19"/><line class="c" x1="-38.33" y1="36.31" x2="320.43" y2="383.79"/><line class="c" x1="-30.94" y1="28.92" x2="327.82" y2="376.4"/><line class="c" x1="-23.54" y1="21.53" x2="335.22" y2="369.01"/><line class="c" x1="-16.15" y1="14.14" x2="342.61" y2="361.62"/><line class="c" x1="-8.76" y1="6.75" x2="350" y2="354.23"/><line class="c" x1="-97.43" y1="95.42" x2="261.33" y2="442.9"/><line class="c" x1="-104.79" y1="102.77" x2="253.97" y2="450.26"/><line class="c" x1="-112.15" y1="110.13" x2="246.61" y2="457.61"/><line class="c" x1="-119.51" y1="117.49" x2="239.25" y2="464.97"/><line class="c" x1="-126.87" y1="124.85" x2="231.89" y2="472.33"/><line class="c" x1="-134.23" y1="132.21" x2="224.53" y2="479.69"/><line class="c" x1="-141.59" y1="139.57" x2="217.17" y2="487.05"/><line class="c" x1="-148.94" y1="146.93" x2="209.82" y2="494.41"/><line class="c" x1="-156.3" y1="154.29" x2="202.46" y2="501.77"/><line class="c" x1="-163.66" y1="161.65" x2="195.1" y2="509.13"/><line class="c" x1="-171.02" y1="169.01" x2="187.74" y2="516.49"/><polygon class="a" points="269.82 414.89 -67.68 294.89 -67.68 139.39 139.82 139.39 269.82 414.89"/><line class="c" x1="86.72" y1="-88.74" x2="445.48" y2="258.74"/><line class="c" x1="94.12" y1="-96.13" x2="452.88" y2="251.35"/><line class="c" x1="101.51" y1="-103.52" x2="460.27" y2="243.96"/><line class="c" x1="108.9" y1="-110.91" x2="467.66" y2="236.57"/><line class="c" x1="116.29" y1="-118.31" x2="475.05" y2="229.17"/><line class="c" x1="123.68" y1="-125.7" x2="482.44" y2="221.78"/><line class="c" x1="131.08" y1="-133.09" x2="489.84" y2="214.39"/><line class="c" x1="138.47" y1="-140.48" x2="497.23" y2="207"/><line class="c" x1="145.86" y1="-147.87" x2="504.62" y2="199.61"/><line class="c" x1="153.25" y1="-155.27" x2="512.01" y2="192.22"/><line class="c" x1="160.64" y1="-162.66" x2="519.4" y2="184.82"/><line class="c" x1="168.03" y1="-170.05" x2="526.79" y2="177.43"/><line class="c" x1="79.36" y1="-81.38" x2="438.12" y2="266.1"/><line class="c" x1="72.01" y1="-74.02" x2="430.77" y2="273.46"/><line class="c" x1="64.65" y1="-66.66" x2="423.41" y2="280.82"/><line class="c" x1="57.29" y1="-59.3" x2="416.05" y2="288.18"/><line class="c" x1="49.93" y1="-51.94" x2="408.69" y2="295.54"/><line class="c" x1="42.57" y1="-44.58" x2="401.33" y2="302.9"/><line class="c" x1="35.21" y1="-37.22" x2="393.97" y2="310.26"/><line class="c" x1="27.85" y1="-29.87" x2="386.61" y2="317.62"/><line class="c" x1="20.49" y1="-22.51" x2="379.25" y2="324.97"/><line class="c" x1="13.13" y1="-15.15" x2="371.89" y2="332.33"/><line class="c" x1="5.77" y1="-7.79" x2="364.53" y2="339.69"/><line class="c" x1="-1.59" y1="-0.43" x2="357.17" y2="347.05"/><polygon class="a" points="446.61 238.1 109.11 118.1 109.11 -37.4 316.61 -37.4 446.61 238.1"/></g></svg>