<svg xmlns="http://www.w3.org/2000/svg" xmlns:xlink="http://www.w3.org/1999/xlink" viewBox="0 0 95 150"><defs><style>.a,.c{fill:none;}.b{clip-path:url(#a);}.c{stroke:#d1d3d4;stroke-miterlimit:10;stroke-width:3px;}</style><clipPath id="a"><rect class="a" x="-0.88" y="0.04" width="96.77" height="150"/></clipPath></defs><g class="b"><line class="c" x1="-227.72" y1="-2.9" x2="131.04" y2="344.58"/><line class="c" x1="-220.33" y1="-10.29" x2="138.43" y2="337.19"/><line class="c" x1="-212.94" y1="-17.68" x2="145.82" y2="329.8"/><line class="c" x1="-205.55" y1="-25.07" x2="153.21" y2="322.41"/><line class="c" x1="-198.16" y1="-32.46" x2="160.6" y2="315.02"/><line class="c" x1="-190.76" y1="-39.86" x2="168" y2="307.63"/><line class="c" x1="-183.37" y1="-47.25" x2="175.39" y2="300.23"/><line class="c" x1="-175.98" y1="-54.64" x2="182.78" y2="292.84"/><line class="c" x1="-168.59" y1="-62.03" x2="190.17" y2="285.45"/><line class="c" x1="-161.2" y1="-69.42" x2="197.56" y2="278.06"/><line class="c" x1="-153.81" y1="-76.82" x2="204.95" y2="270.67"/><line class="c" x1="-146.41" y1="-84.21" x2="212.35" y2="263.27"/><line class="c" x1="-235.08" y1="4.46" x2="123.68" y2="351.94"/><line class="c" x1="-242.44" y1="11.82" x2="116.32" y2="359.3"/><line class="c" x1="-249.8" y1="19.18" x2="108.96" y2="366.66"/><line class="c" x1="-257.16" y1="26.54" x2="101.6" y2="374.02"/><line class="c" x1="-264.52" y1="33.9" x2="94.24" y2="381.38"/><line class="c" x1="-271.88" y1="41.26" x2="86.88" y2="388.74"/><line class="c" x1="-279.24" y1="48.62" x2="79.52" y2="396.1"/><line class="c" x1="-286.6" y1="55.98" x2="72.16" y2="403.46"/><line class="c" x1="-293.96" y1="63.34" x2="64.8" y2="410.82"/><line class="c" x1="-301.32" y1="70.7" x2="57.44" y2="418.18"/><line class="c" x1="-308.68" y1="78.05" x2="50.09" y2="425.54"/><polygon class="a" points="132.16 323.94 -205.34 203.94 -205.34 48.44 2.16 48.44 132.16 323.94"/><line class="c" x1="-50.93" y1="-179.69" x2="307.83" y2="167.79"/><line class="c" x1="-43.54" y1="-187.08" x2="315.22" y2="160.4"/><line class="c" x1="-36.15" y1="-194.47" x2="322.61" y2="153.01"/><line class="c" x1="-28.75" y1="-201.87" x2="330.01" y2="145.61"/><line class="c" x1="-21.36" y1="-209.26" x2="337.4" y2="138.22"/><line class="c" x1="-13.97" y1="-216.65" x2="344.79" y2="130.83"/><line class="c" x1="-6.58" y1="-224.04" x2="352.18" y2="123.44"/><line class="c" x1="0.81" y1="-231.43" x2="359.57" y2="116.05"/><line class="c" x1="8.21" y1="-238.83" x2="366.97" y2="108.65"/><line class="c" x1="15.6" y1="-246.22" x2="374.36" y2="101.26"/><line class="c" x1="22.99" y1="-253.61" x2="381.75" y2="93.87"/><line class="c" x1="30.38" y1="-261" x2="389.14" y2="86.48"/><line class="c" x1="-58.29" y1="-172.33" x2="300.47" y2="175.15"/><line class="c" x1="-65.65" y1="-164.97" x2="293.11" y2="182.51"/><line class="c" x1="-73.01" y1="-157.61" x2="285.75" y2="189.87"/><line class="c" x1="-80.37" y1="-150.25" x2="278.39" y2="197.23"/><line class="c" x1="-87.73" y1="-142.9" x2="271.04" y2="204.59"/><line class="c" x1="-95.08" y1="-135.54" x2="263.68" y2="211.94"/><line class="c" x1="-102.44" y1="-128.18" x2="256.32" y2="219.3"/><line class="c" x1="-109.8" y1="-120.82" x2="248.96" y2="226.66"/><line class="c" x1="-117.16" y1="-113.46" x2="241.6" y2="234.02"/><line class="c" x1="-124.52" y1="-106.1" x2="234.24" y2="241.38"/><line class="c" x1="-131.88" y1="-98.74" x2="226.88" y2="248.74"/><line class="c" x1="-139.24" y1="-91.38" x2="219.52" y2="256.1"/><polygon class="a" points="308.96 147.15 -28.54 27.15 -28.54 -128.35 178.96 -128.35 308.96 147.15"/></g></svg>